<svg xmlns="http://www.w3.org/2000/svg" viewBox="0 0 212 212" width="32" height="32" aria-hidden="true">
  <defs>
    <mask id="m">
      <rect width="212" height="212" fill="white"/>
      <circle cx="30" cy="30" r="29" fill="black"/>
      <circle cx="30" cy="182" r="29" fill="black"/>
      <circle cx="100" cy="30" r="29" fill="black"/>
      <circle cx="100" cy="182" r="29" fill="black"/>
      <circle cx="182" cy="106" r="29" fill="black"/>
    </mask>
  </defs>
  <g mask="url(#m)">
    <line x1="30" y1="30" x2="30" y2="182" stroke="#4F46E5" stroke-width="17" stroke-linecap="round"/>
    <line x1="30" y1="30" x2="100" y2="30" stroke="#4F46E5" stroke-width="17" stroke-linecap="round"/>
    <line x1="30" y1="182" x2="100" y2="182" stroke="#4F46E5" stroke-width="17" stroke-linecap="round"/>
    <path d="M100 30 C162 30, 182 68, 182 106 C182 144, 162 182, 100 182" fill="none" stroke="#06B6D4" stroke-width="17" stroke-linecap="round"/>
  </g>
  <circle cx="30" cy="30" r="19" fill="none" stroke="#4F46E5" stroke-width="17"/>
  <circle cx="30" cy="182" r="19" fill="none" stroke="#4F46E5" stroke-width="17"/>
  <circle cx="100" cy="30" r="19" fill="none" stroke="#06B6D4" stroke-width="17"/>
  <circle cx="100" cy="182" r="19" fill="none" stroke="#06B6D4" stroke-width="17"/>
  <circle cx="182" cy="106" r="19" fill="none" stroke="#06B6D4" stroke-width="17"/>
</svg>
